<svg width="33" height="64" viewBox="0 0 33 64" fill="none" xmlns="http://www.w3.org/2000/svg">
<path d="M28.9388 51.9765C28.9388 53.8735 28.6141 55.5524 27.9624 57.0131C27.3131 58.4764 26.4306 59.7343 25.3223 60.7919C24.2115 61.8469 22.8979 62.6482 21.3813 63.1884C19.8647 63.7286 18.267 64 16.5882 64C14.8535 64 13.2431 63.7286 11.7544 63.1884C10.2632 62.6482 8.96476 61.8469 7.85397 60.7919C6.74318 59.7343 5.86316 58.4764 5.21393 57.0131C4.5647 55.5498 4.23755 53.8735 4.23755 51.9765V25.0841C4.23755 23.243 4.56217 21.5768 5.21393 20.0881C5.86316 18.5994 6.74318 17.3263 7.85397 16.2688C8.96223 15.2138 10.2632 14.415 11.7544 13.8722C13.2431 13.3321 14.856 13.0607 16.5882 13.0607C18.267 13.0607 19.8647 13.3321 21.3813 13.8722C22.8979 14.415 24.2115 15.2138 25.3223 16.2688C26.4306 17.3238 27.3131 18.5994 27.9624 20.0881C28.6116 21.5793 28.9388 23.243 28.9388 25.0841V51.9765ZM11.2269 51.5707C11.2269 53.3054 11.7265 54.6166 12.7308 55.5118C13.7325 56.4045 15.0183 56.8534 16.5907 56.8534C18.1605 56.8534 19.4336 56.407 20.41 55.5118C21.3864 54.6166 21.8733 53.3054 21.8733 51.5707V25.4899C21.8733 23.7578 21.3864 22.4441 20.41 21.5489C19.4362 20.6562 18.1605 20.2073 16.5907 20.2073C15.0183 20.2073 13.7325 20.6537 12.7308 21.5489C11.7291 22.4416 11.2269 23.7553 11.2269 25.4899V51.5707Z" fill="#170B2B"/>
<path d="M28.003 11.217C23.1845 6.5811 17.9906 5.11018 12.566 6.84485C8.25977 8.22193 5.31794 11.1359 5.2875 11.1663L0.92041 6.86006C1.07511 6.70283 4.78537 2.96975 10.4408 1.08799C15.8223 -0.702465 23.9757 -1.16656 32.2534 6.7992L28.003 11.217Z" fill="#FF2A00"/>
</svg>
