<svg width="32" height="64" viewBox="0 0 32 64" fill="none" xmlns="http://www.w3.org/2000/svg">
<path d="M28.2718 51.9765C28.2718 53.8735 27.9471 55.5524 27.2954 57.0131C26.6461 58.4764 25.7636 59.7343 24.6553 60.7919C23.5446 61.8469 22.2309 62.6482 20.7143 63.1884C19.1978 63.7286 17.6 64 15.9212 64C14.1865 64 12.5761 63.7286 11.0874 63.1884C9.59624 62.6482 8.29777 61.8469 7.18698 60.7919C6.07618 59.7343 5.19617 58.4764 4.54694 57.0131C3.89771 55.5498 3.57056 53.8735 3.57056 51.9765V25.0841C3.57056 23.243 3.89517 21.5768 4.54694 20.0881C5.19617 18.5994 6.07618 17.3263 7.18698 16.2688C8.29524 15.2138 9.59624 14.415 11.0874 13.8722C12.5761 13.3321 14.189 13.0607 15.9212 13.0607C17.6 13.0607 19.1978 13.3321 20.7143 13.8722C22.2309 14.415 23.5446 15.2138 24.6553 16.2688C25.7636 17.3238 26.6461 18.5994 27.2954 20.0881C27.9446 21.5793 28.2718 23.243 28.2718 25.0841V51.9765ZM10.5599 51.5707C10.5599 53.3054 11.0595 54.6166 12.0638 55.5118C13.0656 56.4045 14.3513 56.8534 15.9237 56.8534C17.4935 56.8534 18.7666 56.407 19.743 55.5118C20.7194 54.6166 21.2063 53.3054 21.2063 51.5707V25.4899C21.2063 23.7578 20.7194 22.4441 19.743 21.5489C18.7692 20.6562 17.4935 20.2073 15.9237 20.2073C14.3513 20.2073 13.0656 20.6537 12.0638 21.5489C11.0621 22.4416 10.5599 23.7553 10.5599 25.4899V51.5707Z" fill="white"/>
<path d="M27.336 11.217C22.5175 6.5811 17.3236 5.11018 11.899 6.84485C7.59277 8.22193 4.65094 11.1359 4.62051 11.1663L0.253418 6.86006C0.408118 6.70283 4.11837 2.96975 9.77378 1.08799C15.1553 -0.702465 23.3087 -1.16656 31.5864 6.7992L27.336 11.217Z" fill="#FF2A00"/>
</svg>
